<svg clip-rule="evenodd" fill-rule="evenodd" stroke-linejoin="round" stroke-miterlimit="2" viewBox="0 0 271 368" xmlns="http://www.w3.org/2000/svg"><g fill-rule="nonzero" transform="matrix(1.28457 0 0 1.27317 -43.6713 -33.5616)"><path d="m129.518 27.528c-17.686 2.006-33.041 7.542-47.455 17.13-10.038 6.684-18.814 14.955-26.055 24.542-7.812 10.379-13.838 22.564-17.278 35.004-1.266 4.639-2.43 10.21-2.802 13.517-.086.913-.254 21.772-.388 52.658l-.219 51.138.404 2.735c2.448 17.012 9.317 33.554 19.676 47.412 4.353 5.838 10.716 12.64 16.068 17.196 16.048 13.639 35.419 22.11 56.11 24.543 8.604 1.011 18.579.893 27.085-.322 29.53-4.255 55.941-20.879 72.597-45.739 8.267-12.337 13.635-25.737 16.35-40.861.423-2.347.439-2.75.576-12.22.066-5.383.184-29.095.235-52.674l.117-42.902-.352-2.331c-2.598-17.063-9.552-33.484-20.064-47.409-3.746-4.964-9.772-11.444-14.415-15.495-16.197-14.16-34.964-22.631-56.65-25.62-2.598-.369-3.44-.388-12.487-.419-5.333-.02-10.309.031-11.053.117zm19.998 4.102c9.736.976 18.885 3.19 27.994 6.782 3.51 1.387 10.802 4.98 14.026 6.904 11.829 7.123 21.616 15.899 29.668 26.666 9.65 12.878 15.879 27.446 18.595 43.463l.525 3.122-.102 51.389c-.102 50.28-.118 51.444-.439 53.755-3.291 22.889-14.971 44.662-32.3 60.138-7.394 6.598-14.446 11.374-23.12 15.645-6.211 3.056-11.206 4.979-17.635 6.766-7.762 2.179-17.565 3.613-24.57 3.613h-2.261l-.016.877-.019.897-.2-.846-.204-.842-1.602-.035c-23.324-.541-45.124-8.777-63.269-23.9-2.899-2.43-9.027-8.487-11.456-11.339-12.506-14.65-20.35-31.748-23.222-50.551l-.419-2.785.251-51.393c.286-56.623.168-51.847 1.351-57.771 3.272-16.287 10.63-31.493 21.6-44.673 2.766-3.327 9.047-9.604 12.319-12.338 17.094-14.211 36.704-22.129 58.895-23.783 2.954-.219 12.522-.066 15.61.239z"/><path d="m140.48 300.943c-1.671.17-3.101.384-3.166.449-.066.09.674 7.847 1.626 17.235 1.585 15.214 1.821 17.085 2.144 17.149.327.065 7.111-.558 7.222-.668.04-.02-.74-7.802-1.716-17.299l-1.752-17.23-.674.02c-.348.02-2.013.17-3.684.344zm-23.519 16.073c-1.344 9.387-2.406 17.124-2.341 17.189.061.065 1.364.299 2.904.539 1.535.234 3.055.474 3.382.514.499.084.584.025.69-.474.478-2.21 4.902-33.646 4.751-33.776-.131-.11-6.266-1.097-6.784-1.077-.066 0-1.238 7.697-2.602 17.085zm48.034-12.766c1.54-.254 1.822-.254 3.231 0 2.517.454 4.248 1.761 5.441 4.106.543 1.052 6.155 17.963 6.155 18.521 0 .28-6.633 2.43-6.824 2.235-.091-.065-1.259-3.586-2.648-7.822-1.364-4.255-2.687-8.056-2.904-8.485-.498-1.012-1.58-1.915-2.32-1.955-1.797-.09-3.166.344-4.268 1.352-2.084 1.91-1.973 3.202 1.062 12.57 1.253 3.911 2.295 7.158 2.295 7.218 0 .13-6.699 2.215-6.784 2.085-.046-.039-1.842-5.542-3.986-12.226l-3.946-12.141 3.075-1.028c1.691-.559 3.186-1.013 3.342-1.013.151 0 .453.579.649 1.292.216.709.453 1.287.518 1.287.066 0 .327-.513.584-1.137 1.062-2.494 3.709-4.255 7.328-4.859zm-68.196-1.032c-1.671.389-2.925 1.097-4.117 2.324-.932.968-2.321 3.113-2.124 3.308.04.045 1.474.623 3.16 1.267l3.081 1.202 1.041-1.073c.952-.987 1.128-1.072 2.059-1.072 1.389 0 3.271.748 4.293 1.696 1.042 1.008 1.168 2.085.302 2.923-.735.753-2.079.708-5.506-.15-2.255-.558-3.166-.688-5.224-.688-2.255-.02-2.602.02-3.684.539-2.21 1.027-3.881 3.307-4.555 6.185-.931 3.931 1.756 7.543 6.613 8.939 1.58.474 4.208.344 5.984-.279l1.233-.429-.105 1.332c-.086 1.032-.046 1.377.171 1.461 5.335 2.066 6.744 2.559 6.85 2.45.176-.17.151-1.312-.041-2.235-.196-.858-.065-1.247 3.141-9.478 1.409-3.631 2.667-7.153 2.773-7.841.373-2.34-.277-4.081-2.189-5.867-3.553-3.332-9.427-5.352-13.156-4.514zm2.169 15.409c1.364.234 2.753.429 3.075.429h.589l-.609 1.441c-.826 1.936-2.144 3.417-3.337 3.737-1.238.324-3.342.129-4.404-.404-1.253-.649-1.666-1.357-1.56-2.669.131-1.242.674-2.06 1.716-2.579.931-.494 1.47-.469 4.53.045zm86.818-36.939c1.43-1.052 2.668-1.935 2.773-1.935.177-.02 20.701 27.121 20.877 27.57.066.215-5.008 4.106-5.355 4.106-.085 0-.543-.494-.996-1.073l-.826-1.077-.151 1.441c-.413 4.23-4.791 7.907-9.386 7.907-4.49 0-8.541-2.43-11.596-6.964-3.382-5.028-3.991-10.011-1.671-13.922.845-1.442 2.989-3.332 4.64-4.106 1.324-.623 1.666-.688 3.468-.688 1.298.025 1.928-.065 1.842-.214-.065-.105-1.58-2.125-3.362-4.49-1.817-2.384-3.141-4.34-3.035-4.45.091-.084 1.344-1.052 2.778-2.105zm-115.607 6.211c3.101-.838 6.332-.235 9.452 1.761 3.297 2.13 5.657 5.093 6.437 8.016 1.54 5.886-2.451 13.473-8.672 16.436-2.254 1.078-3.704 1.377-6.089 1.247-2.3-.129-3.75-.623-6.005-2.085-3.08-1.995-5.269-4.574-6.246-7.347-.604-1.716-.649-4.575-.105-6.64 1.409-5.327 5.984-9.991 11.228-11.388zm122.608 10.55c-.956-.494-1.626-.663-2.451-.663-2.209 0-4.313 1.611-4.897 3.736-.523 1.935.669 4.963 2.949 7.393 1.712 1.825 2.99 2.623 4.53 2.773 2.471.254 4.962-1.701 5.441-4.28.498-2.619-2.492-7.452-5.572-8.959zm-116.734-3.696c-2.602-1.182-5.008-.364-7.716 2.599-1.429 1.571-2.471 3.417-2.773 5.008-.629 3.053 1.817 6.061 5.159 6.34 2.275.195 5.159-1.786 7.217-4.923 1.515-2.32 1.887-4.684.997-6.36-.479-.923-1.888-2.235-2.884-2.664zm122.502-14.376c1.319-1.632 2.23-2.555 2.426-2.49.151.065 3.488 2.704 7.393 5.867 3.901 3.177 8.345 6.769 9.885 7.991 2.426 1.975 2.728 2.279 2.471 2.579-.176.194-1.193 1.441-2.3 2.773-1.777 2.125-2.058 2.385-2.386 2.15-1.56-1.117-19.744-15.967-19.704-16.097.046-.105 1.022-1.352 2.215-2.773zm-144.003-23.186c-5.446.968-12.14 4.988-15.089 9.114-4.031 5.586-4.056 11.602-.111 17.703 2.104 3.267 5.139 5.502 8.672 6.405 2.602.668 6.87.364 9.256-.624l.714-.299-1.972-3.247-1.948-3.223-1.344.305c-3.644.858-6.659-.604-8.35-4.021-.518-1.033-.584-1.442-.584-3.222 0-1.806.066-2.195.609-3.268 1.234-2.514 4.077-4.878 8.063-6.749 5.833-2.748 10.514-1.631 12.724 3.033 1.258 2.684 1.041 4.814-.735 7.153l-1.042 1.357 1.756 2.943c.977 1.611 1.908 3.073 2.059 3.242.242.26.523.09 1.867-1.286 1.777-1.786 2.97-3.891 3.553-6.211.519-2.04.328-5.607-.412-7.672-2.557-7.198-7.676-11.303-14.349-11.558-1.193-.045-2.688 0-3.337.125zm58.483-76.56c-5.768 4.599-15.718 12.505-22.09 17.598-6.372 5.073-11.596 9.348-11.596 9.498s12.401 17.898 27.531 39.432l27.53 39.174.131-18.612c.065-10.226.151-30.468.196-44.974l.04-26.363-5.093-10.92c-2.819-5.996-5.335-11.428-5.637-12.051l-.518-1.118zm37.46-6.555c-.282.624-2.818 5.951-5.617 11.862l-5.113 10.745-.367 42.974c-.197 23.64-.328 43.752-.282 44.72l.06 1.716 27.53-38.784c15.155-21.315 27.556-38.874 27.596-39.023.025-.13-9.688-8.146-21.611-17.794l-21.677-17.533zm64.336 84.148c-3.336.818-7.453 6.105-8.561 11.024-.392 1.761-.196 4.359.433 5.671.866 1.761 4.057 4.749 4.555 4.255.106-.104.8-1.501 1.58-3.092l1.39-2.924-.524-.389c-1.475-1.092-1.711-2.703-.735-4.748 1.213-2.574 2.859-3.393 4.293-2.17.866.733.755 1.676-.609 5.826-1.062 3.222-1.127 3.587-1.147 5.692-.025 2.065.02 2.364.584 3.481 1.389 2.814 5.355 4.964 8.435 4.62 3.443-.409 6.503-3.762 7.132-7.887.216-1.332.191-1.91-.111-3.417-.171-1.008-.302-1.846-.262-1.89.046-.04.327.024.655.154.322.105.865.215 1.233.215.583 0 .714-.175 2.254-3.228.891-1.761 1.626-3.287 1.626-3.392 0-.389-1.193-.603-1.842-.344-.911.364-1.495.13-9.517-3.761-7.741-3.761-8.889-4.17-10.861-3.696zm-23.433 16.351c1.304-1.586 2.255-2.554 2.431-2.489.388.15 4.852 3.801 4.852 3.976 0 .06-1.017 1.351-2.25 2.853l-2.235 2.709-2.471-1.996c-1.364-1.097-2.471-2.11-2.471-2.215 0-.129.976-1.396 2.144-2.838zm32.669-5.562c2.169 1.157 3.448 2.898 3.448 4.724 0 .818-.65 2.794-1.148 3.502-.996 1.397-3.015 1.422-4.404.045-1.082-1.073-1.127-1.891-.322-5.048.367-1.482.669-2.968.669-3.313 0-.728.197-.728 1.757.09zm-63.169-116.875c3.055-6.405 5.572-11.623 5.617-11.583.04.045.649 1.461 1.364 3.182.695 1.696 4.273 10.336 7.932 19.21 3.664 8.854 8.304 20.068 10.297 24.927 1.998 4.833 3.881 9.413 4.188 10.161.302.733.433 1.267.302 1.182-.151-.085-8.672-6.939-18.944-15.254l-18.688-15.13 1.193-2.514c.649-1.377 3.684-7.757 6.739-14.181zm-52.891-12.247c-.045.15-4.791 11.304-10.514 24.772-14.198 33.462-14.394 33.891-14.309 33.955.046.04 34.34-27.206 37.461-29.765l.931-.773-6.548-14.052c-3.599-7.737-6.634-14.162-6.719-14.246-.106-.105-.237-.04-.302.109zm24.214 25.461c-2.623 2.065-4.837 3.826-4.923 3.91-.151.15 9.603 21.38 9.996 21.769.131.13 9.799-19.983 9.97-20.736.045-.17-2.189-2.125-5.113-4.49l-5.205-4.215zm18.098-14.417c-5.29 4.21-9.623 7.737-9.623 7.822 0 .299 8.606 7.133 8.777 6.939.262-.3 10.645-22.263 10.56-22.348-.066-.04-4.424 3.377-9.714 7.587zm-34.813-6.445c.066.105 2.21 4.724 4.812 10.291 2.581 5.542 4.751 10.161 4.836 10.251.151.13 7.892-5.891 8.018-6.255.045-.15-17.082-14.202-17.58-14.396-.106-.045-.151 0-.086.109zm-.564-6.404c4.812 3.93 21.29 17.209 21.657 17.449.413.254 1.299-.39 12.029-8.939l11.576-9.219-11.923-.13c-6.543-.064-17.017-.149-23.258-.174l-11.339-.02zm9.367-36.555-13.116 30.903 4.897.149c2.687.085 14.394.15 26.035.11l21.179-.045-12.809-31.007c-7.046-17.04-12.879-30.987-12.945-30.987-.06 0-6.024 13.902-13.241 30.877zm-28.16-65.062c-4.922 1.806-7.781 3.008-11.903 5.048-10.488 5.223-20.288 12.291-27.726 20.008l-2.19 2.255-10.101 1.052c-5.571.579-10.166 1.118-10.232 1.183-.171.169-1.6 7.497-1.535 7.926.041.259.69.669 1.948 1.227 1.042.449 1.933.773 1.973.689.065-.085.458-1.228.891-2.539l.8-2.385 5.159-.469c2.838-.279 5.31-.454 5.486-.434.236.065-.111.689-1.279 2.345-3.644 5.048-7.846 12.914-10.015 18.696-2.864 7.667-4.575 15.683-4.943 23.141l-.13 2.858h3.88l.262-3.547c.151-1.935.498-4.963.8-6.704.518-3.028 1.802-8.66 1.953-8.66.04 0 1.278.429 2.753.968 1.474.539 2.773 1.008 2.924 1.072.176.045-.151.883-.886 2.325-1.756 3.437-2.189 5.153-2.169 9.064 0 2.923.065 3.397.584 4.943.78 2.3 1.952 4.215 3.447 5.587 2.32 2.13 4.681 2.793 7.781 2.195 4.122-.798 7.308-3.248 9.15-7.029 1.168-2.364 1.56-3.91 1.908-7.198.13-1.312.261-2.384.281-2.409.021-.02 1.692.559 3.705 1.312 2.038.753 3.709 1.332 3.749 1.312.091-.085 1.953-4.919 1.913-4.984 0 0-4.122-1.526-9.105-3.377-4.987-1.845-9.13-3.392-9.195-3.457-.065-.064-.151-1.396-.216-2.968-.172-5.157.931-8.29 3.276-9.153.78-.299 3.055-.299 4.072-.02 2.627.728 4.595 3.611 4.902 7.133.151 1.696.02 1.656 2.818 1.013 2.884-.669 2.643-.519 2.426-1.552-.911-4.1-3.166-8.076-5.677-9.991-2.255-1.741-5.184-2.579-7.937-2.32-6.241.604-9.341 4.984-9.341 13.174 0 2.47-.02 2.684-.368 2.535-.216-.085-2.365-.858-4.751-1.761l-4.378-1.612.76-1.85c1.082-2.684 3.729-8.056 5.178-10.506 2.084-3.546 6.246-9.522 6.614-9.522.085 0 5.984 3.741 13.096 8.295 7.131 4.58 13.09 8.316 13.266 8.341.151 0 .906-.948 1.691-2.13l1.385-2.15-2.341-1.502c-1.278-.838-7.066-4.554-12.874-8.275-5.813-3.717-10.559-6.854-10.559-6.959 0-.389 6.829-6.944 9.557-9.178 6.981-5.717 13.509-9.797 21.984-13.773l2.602-1.222 1.344 2.08c.76 1.142 1.364 2.15 1.364 2.235 0 .065-.604.194-1.344.279-1.842.215-4.011 1.332-5.309 2.774-1.173 1.291-2.301 3.566-2.668 5.417l-.262 1.287-1.213-.429c-.951-.344-1.776-.454-3.513-.454-2.124 0-2.36.045-3.442.648-1.279.709-2.471 1.931-3.755 3.846-3.966 6.061-.931 14.202 6.226 16.696 1.842.644 5.506.878 9.079.624 1.671-.13 3.061-.24 3.081-.28.065-.084-.695-5.093-.801-5.178-.045-.064-1.152-.024-2.43.065-6.221.429-9.02-.518-10.363-3.526-.952-2.125-.519-4.794 1.087-6.595.886-1.013 1.993-1.227 3.9-.733 2.079.539 2.32.773 2.753 2.664.197.902.368 1.676.393 1.701.06.064 4.942-1.422 5.048-1.527.045-.045-.086-.968-.282-2.085-.649-3.716-.151-7.004 1.278-8.53 1.193-1.267 4.122-2.215 5.854-1.891.74.13.891.365 5.053 7.433 2.38 4.021 4.399 7.308 4.484 7.308.131 0 3.403-1.98 4.444-2.709.046-.02-3.185-5.113-7.197-11.303-3.986-6.186-7.328-11.388-7.388-11.583-.111-.279.408-.514 2.557-1.247l2.707-.898-.302-1.013c-.176-.558-.412-1.376-.543-1.825-.131-.539-.322-.793-.584-.793-.196 0-2.169.663-4.379 1.481zm69.586-18.995c.866-.24 1.993-.305 4.228-.26 2.838.085 3.186.13 5.415.883 3.881 1.287 7.524 3.567 11.254 7.024 2.904 2.688 6.568 7.327 8.672 10.959l.563.988-2.254 1.207c-1.239.663-2.346 1.222-2.472 1.222-.11 0-.563-.624-1.021-1.397-2.059-3.482-6.609-8.764-9.583-11.109-2.059-1.611-4.635-3.072-6.634-3.761-1.535-.514-2.098-.598-4.267-.598-2.904 0-3.861.319-5.507 1.845-1.58 1.442-2.732 4.32-2.732 6.854v.773l4.187 1.033c19.311 4.794 36.741 14.356 50.093 27.505 16.151 15.878 25.19 35.711 25.864 56.687l.126 4.036h-3.966v-2.17c0-1.956-.04-2.145-.367-2.04-1.842.518-27.898 6.554-28.009 6.469-.216-.239-1.278-4.943-1.147-5.073.085-.084 6.437-1.611 14.132-3.417 7.696-1.805 14.198-3.352 14.44-3.456.322-.11.453-.305.388-.669-.755-5.113-1.168-7.048-1.495-7.048-.151 0-6.699 1.89-14.545 4.19-7.847 2.299-14.415 4.215-14.591 4.255-.216.02-.518-.624-1.037-2.32-.392-1.312-.72-2.469-.72-2.579 0-.129 1.173-.538 2.603-.947 1.434-.405 2.536-.794 2.451-.878-.111-.065-.801-.644-1.581-1.247-5.269-4.146-8.933-12.122-8.022-17.405.78-4.644 4.378-7.906 10.297-9.393 1.908-.468 3.579-.688 3.579-.449 0 .065-.242 1.223-.544 2.579-.302 1.372-.629 3.113-.74 3.846-.473 3.288.871 5.348 3.428 5.348 2.169 0 3.467-1.053 4.897-3.996 1.585-3.242 2.385-7.178 1.842-9.153-.539-2.021-7.63-10.441-12.094-14.352l-1.515-1.331-2.321 2.728c-1.278 1.522-2.451 2.729-2.602 2.729-.176-.025-3.643-2.28-7.715-5.028-4.102-2.754-7.761-5.118-8.133-5.223-.911-.28-1.757-.045-1.928.514-.584 1.805 1.862 5.053 7.434 9.802 4.338 3.716 5.551 5.432 5.551 7.906 0 1.611-.674 2.988-2.36 4.789-4.253 4.559-10.107 5.307-15.175 1.955-1.651-1.092-3.317-2.853-4.318-4.554-.906-1.527-5.31-12.74-5.068-12.915.216-.189 4.982-1.651 5.068-1.566.065.04.936 2.255 1.953 4.898 2.32 6.081 3.035 7.588 4.227 8.745 1.973 1.915 4.661 2.494 6.739 1.461.63-.299 1.626-.967 2.215-1.481.976-.858 1.042-.968.886-1.631-.106-.519-.584-1.118-1.601-2.046-6.915-6.275-10.886-11.772-10.926-15.169-.066-5.243 4.987-7.971 10.056-5.457.563.279 3.447 2.15 6.442 4.17 2.989 2.02 5.591 3.716 5.742 3.781.302.105 1.671-1.357 1.671-1.786 0-.279-4.358-3.501-7.458-5.522-4.555-2.963-11.838-6.873-15.975-8.574l-.78-.32-1.128 3.482c-2.561 7.797-4.338 9.842-8.52 9.842-.997-.025-2.3-.13-2.904-.279-2.819-.689-5.441-2.475-6.377-4.365-.821-1.696-.649-2.838 1.324-8.68.976-2.878 1.711-5.267 1.691-5.287-.237-.215-4.203-.968-4.334-.838-.131.149-2.778 10.166-5.335 20.262-.538 2.195-1.062 4.061-1.147 4.15-.151.17-4.444-.798-4.963-1.117-.216-.13.473-3.033 2.879-12.291 1.716-6.665 3.1-12.142 3.08-12.167-.131-.124-6.135-.898-7.932-1.027-1.021-.065-2.063-.175-2.32-.24l-.498-.084v3.436c0 3.118-.045 3.442-.373 3.462-.216.02-4.615.085-9.774.17-8.973.13-9.406.15-9.713.539-.433.603-.388.923.262 1.566l.543.539 8.174-.065 8.168-.085 1.238.604c2.794 1.352 4.419 4.619 3.835 7.756-.865 4.749-5.113 7.628-11.379 7.692-1.128 0-2.039.065-2.039.13s.368.409.801.793c.911.773 1.021.539-1.213 3.158-1.193 1.397-1.45 1.611-1.757 1.397-.191-.15-2.773-2.275-5.722-4.749l-5.375-4.49 1.927-1.89 1.908-1.891 2.28.644c7.066 1.975 11.49 2.085 14.087.344 1.278-.838 1.409-2.065.347-3.307-.886-1.053-1.58-1.143-9.603-1.143h-7.368l-1.54-.748c-2.602-1.292-4.031-3.352-4.052-5.826 0-2.494 1.777-4.814 4.183-5.438.453-.104 4.399-.279 8.777-.364 7.977-.149 8.003-.149 7.872-.603-.066-.255-.131-.773-.131-1.178v-.733l-5.244.13c-5.204.105-9.865.539-15.869 1.442-1.561.234-2.884.364-2.97.279-.151-.175-1.087-3.547-.996-3.632.105-.089 8.017-1.162 11.314-1.526 2.708-.304 5.159-.389 11.052-.369 7.635 0 12.23.279 17.54 1.077 1.173.17 2.169.28 2.21.235.045-.04.176-.793.307-1.676.538-3.781 1.751-6.445 3.965-8.68 1.646-1.631 3.317-2.599 5.572-3.222zm-110.841 86.402 3.946 1.441.262 1.203c.649 2.878.236 6.405-.997 8.829-.609 1.182-2.365 2.858-3.468 3.312-2.365.988-5.375-.239-6.633-2.689-1.278-2.489-.825-7.327 1.042-11.044.584-1.162 1.515-2.469 1.751-2.469.091 0 1.933.644 4.097 1.417zm176.415-13.454c-.87-1.955-2.169-4.704-2.883-6.12l-1.324-2.579v1.137c-.02 1.851-.649 4.34-1.56 6.211-3.75 7.736-13.504 8.465-16.911 1.247-.624-1.332-1.253-3.762-1.278-4.899 0-.818-.323-.733-.997.255-.78 1.182-.976 2.214-.735 4.04.67 5.288 4.334 9.992 10.403 13.344l1.193.648 8.521-2.514c4.681-1.397 8.561-2.604 8.647-2.689.196-.169-1.213-3.865-3.076-8.081zm-58.533-51.14c-1.404-.473-2.597-.858-2.597-.858-.025 0-.74 2.061-1.605 4.575-1.626 4.774-1.671 4.963-.846 5.976.564.708 1.797 1.267 2.733 1.267 1.666 0 2.557-1.377 4.399-6.834.714-2.15.951-3.093.78-3.158-.151-.065-1.43-.494-2.864-.968z" transform="matrix(.778473 0 0 .785444 33.9969 26.3608)"/></g></svg>